<?xml version="1.0" encoding="UTF-8" standalone="no"?>
<!DOCTYPE svg PUBLIC "-//W3C//DTD SVG 1.1//EN"
 "http://www.w3.org/Graphics/SVG/1.1/DTD/svg11.dtd">
<!-- Generated by graphviz version 7.1.0 (20230122.1345)
 -->
<!-- Title: snakemake_dag Pages: 1 -->
<svg width="1992pt" height="1196pt"
 viewBox="0.00 0.00 1991.67 1196.00" xmlns="http://www.w3.org/2000/svg" xmlns:xlink="http://www.w3.org/1999/xlink">
<g id="graph0" class="graph" transform="scale(1 1) rotate(0) translate(4 1192)">
<title>snakemake_dag</title>
<polygon fill="white" stroke="none" points="-4,4 -4,-1192 1987.67,-1192 1987.67,4 -4,4"/>
<!-- 0 -->
<g id="node1" class="node">
<title>0</title>
<path fill="none" stroke="#568ad8" stroke-width="2" d="M1846.67,-36C1846.67,-36 1816.67,-36 1816.67,-36 1810.67,-36 1804.67,-30 1804.67,-24 1804.67,-24 1804.67,-12 1804.67,-12 1804.67,-6 1810.67,0 1816.67,0 1816.67,0 1846.67,0 1846.67,0 1852.67,0 1858.67,-6 1858.67,-12 1858.67,-12 1858.67,-24 1858.67,-24 1858.67,-30 1852.67,-36 1846.67,-36"/>
<text text-anchor="middle" x="1831.67" y="-15.5" font-family="sans" font-size="10.00">all</text>
</g>
<!-- 1 -->
<g id="node2" class="node">
<title>1</title>
<path fill="none" stroke="#56d8a9" stroke-width="2" d="M968.17,-828C968.17,-828 903.17,-828 903.17,-828 897.17,-828 891.17,-822 891.17,-816 891.17,-816 891.17,-804 891.17,-804 891.17,-798 897.17,-792 903.17,-792 903.17,-792 968.17,-792 968.17,-792 974.17,-792 980.17,-798 980.17,-804 980.17,-804 980.17,-816 980.17,-816 980.17,-822 974.17,-828 968.17,-828"/>
<text text-anchor="middle" x="935.67" y="-807.5" font-family="sans" font-size="10.00">variant_counts</text>
</g>
<!-- 1&#45;&gt;0 -->
<g id="edge6" class="edge">
<title>1&#45;&gt;0</title>
<path fill="none" stroke="grey" stroke-width="2" d="M952.37,-791.14C985.06,-757.38 1061.23,-684.3 1140.67,-648 1197.15,-622.19 1221.46,-642.29 1275.67,-612 1295.98,-600.65 1293.9,-588.26 1313.67,-576 1353.1,-551.54 1368.29,-556.46 1411.67,-540 1575.89,-477.72 1629.65,-487.32 1779.67,-396 1857.76,-348.47 1907.67,-326.41 1907.67,-235 1907.67,-235 1907.67,-235 1907.67,-161 1907.67,-117.06 1879.04,-73.56 1856.92,-46.52"/>
<polygon fill="grey" stroke="grey" stroke-width="2" points="1859.64,-44.31 1850.5,-38.96 1854.31,-48.85 1859.64,-44.31"/>
</g>
<!-- 10 -->
<g id="node11" class="node">
<title>10</title>
<path fill="none" stroke="#afd856" stroke-width="2" d="M1206.67,-756C1206.67,-756 1098.67,-756 1098.67,-756 1092.67,-756 1086.67,-750 1086.67,-744 1086.67,-744 1086.67,-732 1086.67,-732 1086.67,-726 1092.67,-720 1098.67,-720 1098.67,-720 1206.67,-720 1206.67,-720 1212.67,-720 1218.67,-726 1218.67,-732 1218.67,-732 1218.67,-744 1218.67,-744 1218.67,-750 1212.67,-756 1206.67,-756"/>
<text text-anchor="middle" x="1152.67" y="-735.5" font-family="sans" font-size="10.00">analyze_variant_counts</text>
</g>
<!-- 1&#45;&gt;10 -->
<g id="edge22" class="edge">
<title>1&#45;&gt;10</title>
<path fill="none" stroke="grey" stroke-width="2" d="M981.16,-794.33C1011.27,-784.61 1051.28,-771.71 1085.08,-760.8"/>
<polygon fill="grey" stroke="grey" stroke-width="2" points="1085.91,-764.22 1094.35,-757.81 1083.76,-757.55 1085.91,-764.22"/>
</g>
<!-- 14 -->
<g id="node15" class="node">
<title>14</title>
<path fill="none" stroke="#d8d356" stroke-width="2" d="M814.67,-756C814.67,-756 764.67,-756 764.67,-756 758.67,-756 752.67,-750 752.67,-744 752.67,-744 752.67,-732 752.67,-732 752.67,-726 758.67,-720 764.67,-720 764.67,-720 814.67,-720 814.67,-720 820.67,-720 826.67,-726 826.67,-732 826.67,-732 826.67,-744 826.67,-744 826.67,-750 820.67,-756 814.67,-756"/>
<text text-anchor="middle" x="789.67" y="-735.5" font-family="sans" font-size="10.00">func_scores</text>
</g>
<!-- 1&#45;&gt;14 -->
<g id="edge32" class="edge">
<title>1&#45;&gt;14</title>
<path fill="none" stroke="grey" stroke-width="2" d="M898.45,-791.15C880.33,-782.47 858.3,-771.91 838.82,-762.56"/>
<polygon fill="grey" stroke="grey" stroke-width="2" points="840.34,-759.41 829.81,-758.24 837.31,-765.72 840.34,-759.41"/>
</g>
<!-- 17 -->
<g id="node18" class="node">
<title>17</title>
<path fill="none" stroke="#56c1d8" stroke-width="2" d="M1388.67,-612C1388.67,-612 1334.67,-612 1334.67,-612 1328.67,-612 1322.67,-606 1322.67,-600 1322.67,-600 1322.67,-588 1322.67,-588 1322.67,-582 1328.67,-576 1334.67,-576 1334.67,-576 1388.67,-576 1388.67,-576 1394.67,-576 1400.67,-582 1400.67,-588 1400.67,-588 1400.67,-600 1400.67,-600 1400.67,-606 1394.67,-612 1388.67,-612"/>
<text text-anchor="middle" x="1361.67" y="-591.5" font-family="sans" font-size="10.00">prob_escape</text>
</g>
<!-- 1&#45;&gt;17 -->
<g id="edge41" class="edge">
<title>1&#45;&gt;17</title>
<path fill="none" stroke="grey" stroke-width="2" d="M973.39,-791.11C992.32,-781.56 1015.29,-769.1 1034.67,-756 1055.32,-742.04 1056.63,-733.36 1077.67,-720 1141.79,-679.27 1163.08,-678.44 1232.67,-648 1257.98,-636.93 1286.36,-625.2 1310.04,-615.59"/>
<polygon fill="grey" stroke="grey" stroke-width="2" points="1311.19,-618.9 1319.15,-611.91 1308.57,-612.41 1311.19,-618.9"/>
</g>
<!-- 18 -->
<g id="node19" class="node">
<title>18</title>
<path fill="none" stroke="#d86656" stroke-width="2" d="M946.67,-108C946.67,-108 892.67,-108 892.67,-108 886.67,-108 880.67,-102 880.67,-96 880.67,-96 880.67,-84 880.67,-84 880.67,-78 886.67,-72 892.67,-72 892.67,-72 946.67,-72 946.67,-72 952.67,-72 958.67,-78 958.67,-84 958.67,-84 958.67,-96 958.67,-96 958.67,-102 952.67,-108 946.67,-108"/>
<text text-anchor="middle" x="919.67" y="-87.5" font-family="sans" font-size="10.00">sphinx_build</text>
</g>
<!-- 1&#45;&gt;18 -->
<g id="edge57" class="edge">
<title>1&#45;&gt;18</title>
<path fill="none" stroke="grey" stroke-width="2" d="M917.87,-791.02C898.61,-772.08 866.5,-742.02 835.67,-720 650.1,-587.43 530.41,-646.67 388.67,-468 318.44,-379.46 346.88,-328.75 354.67,-216 356.9,-183.77 341.34,-166.35 364.67,-144 400.53,-109.65 735.5,-96.31 867.02,-92.37"/>
<polygon fill="grey" stroke="grey" stroke-width="2" points="866.91,-95.88 876.81,-92.09 866.71,-88.88 866.91,-95.88"/>
</g>
<!-- 29 -->
<g id="node30" class="node">
<title>29</title>
<path fill="none" stroke="#d89c56" stroke-width="2" d="M943.17,-180C943.17,-180 896.17,-180 896.17,-180 890.17,-180 884.17,-174 884.17,-168 884.17,-168 884.17,-156 884.17,-156 884.17,-150 890.17,-144 896.17,-144 896.17,-144 943.17,-144 943.17,-144 949.17,-144 955.17,-150 955.17,-156 955.17,-156 955.17,-168 955.17,-168 955.17,-174 949.17,-180 943.17,-180"/>
<text text-anchor="middle" x="919.67" y="-159.5" font-family="sans" font-size="10.00">docs_index</text>
</g>
<!-- 1&#45;&gt;29 -->
<g id="edge98" class="edge">
<title>1&#45;&gt;29</title>
<path fill="none" stroke="grey" stroke-width="2" d="M933.46,-791.34C930.56,-772.68 924.27,-742.84 911.67,-720 817.16,-548.7 684.6,-578.34 613.67,-396 607.87,-381.09 607.9,-374.92 613.67,-360 629.28,-319.65 708.1,-239.1 744.67,-216 783.44,-191.51 834.19,-177.78 871.04,-170.47"/>
<polygon fill="grey" stroke="grey" stroke-width="2" points="871.3,-173.98 880.48,-168.7 870.01,-167.1 871.3,-173.98"/>
</g>
<!-- 2 -->
<g id="node3" class="node">
<title>2</title>
<path fill="none" stroke="#56d87b" stroke-width="2" d="M1074.17,-900C1074.17,-900 1005.17,-900 1005.17,-900 999.17,-900 993.17,-894 993.17,-888 993.17,-888 993.17,-876 993.17,-876 993.17,-870 999.17,-864 1005.17,-864 1005.17,-864 1074.17,-864 1074.17,-864 1080.17,-864 1086.17,-870 1086.17,-876 1086.17,-876 1086.17,-888 1086.17,-888 1086.17,-894 1080.17,-900 1074.17,-900"/>
<text text-anchor="middle" x="1039.67" y="-879.5" font-family="sans" font-size="10.00">count_barcodes</text>
</g>
<!-- 2&#45;&gt;1 -->
<g id="edge9" class="edge">
<title>2&#45;&gt;1</title>
<path fill="none" stroke="grey" stroke-width="2" d="M1013.16,-863.15C1000.93,-854.93 986.21,-845.02 972.9,-836.06"/>
<polygon fill="grey" stroke="grey" stroke-width="2" points="974.9,-833.18 964.65,-830.5 970.99,-838.99 974.9,-833.18"/>
</g>
<!-- 2&#45;&gt;10 -->
<g id="edge20" class="edge">
<title>2&#45;&gt;10</title>
<path fill="none" stroke="grey" stroke-width="2" d="M1050.51,-863.29C1062.09,-844.85 1081.39,-815.44 1100.67,-792 1107.97,-783.13 1116.49,-774.01 1124.49,-765.89"/>
<polygon fill="grey" stroke="grey" stroke-width="2" points="1126.78,-768.56 1131.4,-759.03 1121.84,-763.59 1126.78,-768.56"/>
</g>
<!-- 3 -->
<g id="node4" class="node">
<title>3</title>
<path fill="none" stroke="#56d88a" stroke-width="2" d="M886.67,-972C886.67,-972 790.67,-972 790.67,-972 784.67,-972 778.67,-966 778.67,-960 778.67,-960 778.67,-948 778.67,-948 778.67,-942 784.67,-936 790.67,-936 790.67,-936 886.67,-936 886.67,-936 892.67,-936 898.67,-942 898.67,-948 898.67,-948 898.67,-960 898.67,-960 898.67,-966 892.67,-972 886.67,-972"/>
<text text-anchor="middle" x="838.67" y="-951.5" font-family="sans" font-size="10.00">build_codon_variants</text>
</g>
<!-- 3&#45;&gt;1 -->
<g id="edge8" class="edge">
<title>3&#45;&gt;1</title>
<path fill="none" stroke="grey" stroke-width="2" d="M850.96,-935.02C867.43,-910.9 896.85,-867.83 916.31,-839.34"/>
<polygon fill="grey" stroke="grey" stroke-width="2" points="919.03,-841.57 921.78,-831.34 913.25,-837.62 919.03,-841.57"/>
</g>
<!-- 3&#45;&gt;2 -->
<g id="edge10" class="edge">
<title>3&#45;&gt;2</title>
<path fill="none" stroke="grey" stroke-width="2" d="M890.17,-935.06C917.63,-925.5 951.55,-913.69 980.13,-903.73"/>
<polygon fill="grey" stroke="grey" stroke-width="2" points="981.28,-907.04 989.58,-900.45 978.98,-900.43 981.28,-907.04"/>
</g>
<!-- 3&#45;&gt;10 -->
<g id="edge23" class="edge">
<title>3&#45;&gt;10</title>
<path fill="none" stroke="grey" stroke-width="2" d="M899.6,-947.24C965.83,-939.82 1066.04,-924.83 1094.67,-900 1104.91,-891.11 1130.04,-813.04 1143.62,-768.96"/>
<polygon fill="grey" stroke="grey" stroke-width="2" points="1146.89,-770.23 1146.47,-759.64 1140.2,-768.18 1146.89,-770.23"/>
</g>
<!-- 3&#45;&gt;14 -->
<g id="edge33" class="edge">
<title>3&#45;&gt;14</title>
<path fill="none" stroke="grey" stroke-width="2" d="M834.01,-935.26C827.72,-911.08 816.31,-866.39 807.67,-828 803.3,-808.58 798.86,-786.67 795.49,-769.45"/>
<polygon fill="grey" stroke="grey" stroke-width="2" points="798.95,-768.9 793.61,-759.75 792.08,-770.23 798.95,-768.9"/>
</g>
<!-- 3&#45;&gt;17 -->
<g id="edge40" class="edge">
<title>3&#45;&gt;17</title>
<path fill="none" stroke="grey" stroke-width="2" d="M839.03,-935.06C840.56,-903.04 847.87,-835.35 881.67,-792 962.65,-688.13 1017.94,-695.8 1140.67,-648 1170.96,-636.2 1253.83,-617.63 1309.04,-605.9"/>
<polygon fill="grey" stroke="grey" stroke-width="2" points="1309.72,-609.33 1318.78,-603.84 1308.27,-602.48 1309.72,-609.33"/>
</g>
<!-- 3&#45;&gt;18 -->
<g id="edge55" class="edge">
<title>3&#45;&gt;18</title>
<path fill="none" stroke="grey" stroke-width="2" d="M777.74,-936.81C603.67,-886.51 116.67,-715.68 116.67,-379 116.67,-379 116.67,-379 116.67,-233 116.67,-122.98 240.55,-169.09 347.67,-144 535.16,-100.09 765.21,-92.26 866.97,-91.07"/>
<polygon fill="grey" stroke="grey" stroke-width="2" points="866.9,-94.57 876.86,-90.98 866.83,-87.57 866.9,-94.57"/>
</g>
<!-- 25 -->
<g id="node26" class="node">
<title>25</title>
<path fill="none" stroke="#567bd8" stroke-width="2" d="M972.17,-324C972.17,-324 917.17,-324 917.17,-324 911.17,-324 905.17,-318 905.17,-312 905.17,-312 905.17,-300 905.17,-300 905.17,-294 911.17,-288 917.17,-288 917.17,-288 972.17,-288 972.17,-288 978.17,-288 984.17,-294 984.17,-300 984.17,-300 984.17,-312 984.17,-312 984.17,-318 978.17,-324 972.17,-324"/>
<text text-anchor="middle" x="944.67" y="-303.5" font-family="sans" font-size="10.00">make_nblink</text>
</g>
<!-- 3&#45;&gt;25 -->
<g id="edge79" class="edge">
<title>3&#45;&gt;25</title>
<path fill="none" stroke="grey" stroke-width="2" d="M821.29,-935.26C785.06,-896.04 707.7,-799.14 743.67,-720 783.95,-631.39 832.43,-636.5 908.67,-576 930.12,-558.98 946.19,-564.37 958.67,-540 992.46,-474.04 970.83,-383.41 955.72,-337.02"/>
<polygon fill="grey" stroke="grey" stroke-width="2" points="959.1,-336.11 952.56,-327.77 952.48,-338.37 959.1,-336.11"/>
</g>
<!-- 3&#45;&gt;29 -->
<g id="edge96" class="edge">
<title>3&#45;&gt;29</title>
<path fill="none" stroke="grey" stroke-width="2" d="M798.35,-935.01C677.55,-878.08 328.87,-690.29 360.67,-432 373.22,-330.08 359.8,-276.63 442.67,-216 509.82,-166.87 762.49,-162.14 870.36,-162.43"/>
<polygon fill="grey" stroke="grey" stroke-width="2" points="870.34,-165.93 880.36,-162.48 870.37,-158.93 870.34,-165.93"/>
</g>
<!-- 4 -->
<g id="node5" class="node">
<title>4</title>
<path fill="none" stroke="#d88d56" stroke-width="2" d="M380.67,-1044C380.67,-1044 270.67,-1044 270.67,-1044 264.67,-1044 258.67,-1038 258.67,-1032 258.67,-1032 258.67,-1020 258.67,-1020 258.67,-1014 264.67,-1008 270.67,-1008 270.67,-1008 380.67,-1008 380.67,-1008 386.67,-1008 392.67,-1014 392.67,-1020 392.67,-1020 392.67,-1032 392.67,-1032 392.67,-1038 386.67,-1044 380.67,-1044"/>
<text text-anchor="middle" x="325.67" y="-1023.5" font-family="sans" font-size="10.00">build_pacbio_consensus</text>
</g>
<!-- 4&#45;&gt;3 -->
<g id="edge11" class="edge">
<title>4&#45;&gt;3</title>
<path fill="none" stroke="grey" stroke-width="2" d="M393.53,-1015.74C489.92,-1002.59 665.81,-978.59 765.19,-965.03"/>
<polygon fill="grey" stroke="grey" stroke-width="2" points="765.37,-968.53 774.8,-963.71 764.42,-961.6 765.37,-968.53"/>
</g>
<!-- 4&#45;&gt;18 -->
<g id="edge43" class="edge">
<title>4&#45;&gt;18</title>
<path fill="none" stroke="grey" stroke-width="2" d="M290.73,-1007.13C251.32,-984.2 192.67,-940.42 192.67,-883 192.67,-883 192.67,-883 192.67,-737 192.67,-570.02 78.67,-545.98 78.67,-379 78.67,-379 78.67,-379 78.67,-233 78.67,-186.73 93.14,-168.04 132.67,-144 195.15,-106.01 701.22,-94.52 867.18,-91.75"/>
<polygon fill="grey" stroke="grey" stroke-width="2" points="866.93,-95.26 876.87,-91.6 866.81,-88.26 866.93,-95.26"/>
</g>
<!-- 4&#45;&gt;25 -->
<g id="edge74" class="edge">
<title>4&#45;&gt;25</title>
<path fill="none" stroke="grey" stroke-width="2" d="M345.31,-1007.36C406.14,-952.85 597.15,-782.71 760.67,-648 800.75,-614.99 810.86,-606.79 852.67,-576 875.3,-559.33 888.99,-563.33 904.67,-540 946.58,-477.67 949.01,-385.39 946.99,-337.83"/>
<polygon fill="grey" stroke="grey" stroke-width="2" points="950.49,-337.67 946.45,-327.88 943.5,-338.05 950.49,-337.67"/>
</g>
<!-- 4&#45;&gt;29 -->
<g id="edge85" class="edge">
<title>4&#45;&gt;29</title>
<path fill="none" stroke="grey" stroke-width="2" d="M313.3,-1007.09C296.54,-981.03 268.67,-930.55 268.67,-883 268.67,-883 268.67,-883 268.67,-737 268.67,-505.36 61.21,-343.4 254.67,-216 305.79,-182.34 725.96,-168.13 870.81,-164.2"/>
<polygon fill="grey" stroke="grey" stroke-width="2" points="870.62,-167.71 880.52,-163.94 870.43,-160.71 870.62,-167.71"/>
</g>
<!-- 5 -->
<g id="node6" class="node">
<title>5</title>
<path fill="none" stroke="#56d0d8" stroke-width="2" d="M237.17,-1116C237.17,-1116 148.17,-1116 148.17,-1116 142.17,-1116 136.17,-1110 136.17,-1104 136.17,-1104 136.17,-1092 136.17,-1092 136.17,-1086 142.17,-1080 148.17,-1080 148.17,-1080 237.17,-1080 237.17,-1080 243.17,-1080 249.17,-1086 249.17,-1092 249.17,-1092 249.17,-1104 249.17,-1104 249.17,-1110 243.17,-1116 237.17,-1116"/>
<text text-anchor="middle" x="192.67" y="-1095.5" font-family="sans" font-size="10.00">analyze_pacbio_ccs</text>
</g>
<!-- 5&#45;&gt;4 -->
<g id="edge15" class="edge">
<title>5&#45;&gt;4</title>
<path fill="none" stroke="grey" stroke-width="2" d="M226.58,-1079.15C242.91,-1070.56 262.74,-1060.12 280.35,-1050.85"/>
<polygon fill="grey" stroke="grey" stroke-width="2" points="281.93,-1053.98 289.15,-1046.22 278.67,-1047.78 281.93,-1053.98"/>
</g>
<!-- 5&#45;&gt;18 -->
<g id="edge60" class="edge">
<title>5&#45;&gt;18</title>
<path fill="none" stroke="grey" stroke-width="2" d="M135.41,-1080.88C79.46,-1061.22 2.67,-1022.02 2.67,-955 2.67,-955 2.67,-955 2.67,-449 2.67,-308.16 -22.9,-229.95 88.67,-144 119.57,-120.2 689.21,-98.85 867.07,-92.74"/>
<polygon fill="grey" stroke="grey" stroke-width="2" points="867.02,-96.25 876.89,-92.41 866.78,-89.25 867.02,-96.25"/>
</g>
<!-- 5&#45;&gt;25 -->
<g id="edge76" class="edge">
<title>5&#45;&gt;25</title>
<path fill="none" stroke="grey" stroke-width="2" d="M197.47,-1079.14C212.01,-1028.08 260.06,-879.6 348.67,-792 393.41,-747.77 813.38,-586.57 855.67,-540 909.43,-480.79 931.95,-385.73 940.32,-337.37"/>
<polygon fill="grey" stroke="grey" stroke-width="2" points="943.73,-338.19 941.87,-327.76 936.82,-337.07 943.73,-338.19"/>
</g>
<!-- 5&#45;&gt;29 -->
<g id="edge101" class="edge">
<title>5&#45;&gt;29</title>
<path fill="none" stroke="grey" stroke-width="2" d="M184.61,-1079.03C173.46,-1052.48 154.67,-1000.94 154.67,-955 154.67,-955 154.67,-955 154.67,-377 154.67,-301.53 145.53,-257.35 208.67,-216 263.77,-179.92 718.66,-167.2 870.53,-163.94"/>
<polygon fill="grey" stroke="grey" stroke-width="2" points="870.48,-167.44 880.4,-163.73 870.33,-160.44 870.48,-167.44"/>
</g>
<!-- 6 -->
<g id="node7" class="node">
<title>6</title>
<path fill="none" stroke="#d87556" stroke-width="2" d="M246.17,-1188C246.17,-1188 139.17,-1188 139.17,-1188 133.17,-1188 127.17,-1182 127.17,-1176 127.17,-1176 127.17,-1164 127.17,-1164 127.17,-1158 133.17,-1152 139.17,-1152 139.17,-1152 246.17,-1152 246.17,-1152 252.17,-1152 258.17,-1158 258.17,-1164 258.17,-1164 258.17,-1176 258.17,-1176 258.17,-1182 252.17,-1188 246.17,-1188"/>
<text text-anchor="middle" x="192.67" y="-1167.5" font-family="sans" font-size="10.00">align_parse_PacBio_ccs</text>
</g>
<!-- 6&#45;&gt;5 -->
<g id="edge16" class="edge">
<title>6&#45;&gt;5</title>
<path fill="none" stroke="grey" stroke-width="2" d="M192.67,-1151.34C192.67,-1144.75 192.67,-1137.08 192.67,-1129.67"/>
<polygon fill="grey" stroke="grey" stroke-width="2" points="196.17,-1129.93 192.67,-1119.93 189.17,-1129.93 196.17,-1129.93"/>
</g>
<!-- 7 -->
<g id="node8" class="node">
<title>7</title>
<path fill="none" stroke="#78d856" stroke-width="2" d="M960.67,-1116C960.67,-1116 892.67,-1116 892.67,-1116 886.67,-1116 880.67,-1110 880.67,-1104 880.67,-1104 880.67,-1092 880.67,-1092 880.67,-1086 886.67,-1080 892.67,-1080 892.67,-1080 960.67,-1080 960.67,-1080 966.67,-1080 972.67,-1086 972.67,-1092 972.67,-1092 972.67,-1104 972.67,-1104 972.67,-1110 966.67,-1116 960.67,-1116"/>
<text text-anchor="middle" x="926.67" y="-1095.5" font-family="sans" font-size="10.00">gene_sequence</text>
</g>
<!-- 7&#45;&gt;1 -->
<g id="edge7" class="edge">
<title>7&#45;&gt;1</title>
<path fill="none" stroke="grey" stroke-width="2" d="M927.23,-1079.11C928.73,-1031.56 932.82,-901.6 934.7,-841.83"/>
<polygon fill="grey" stroke="grey" stroke-width="2" points="938.2,-842.01 935.01,-831.91 931.2,-841.79 938.2,-842.01"/>
</g>
<!-- 7&#45;&gt;3 -->
<g id="edge12" class="edge">
<title>7&#45;&gt;3</title>
<path fill="none" stroke="grey" stroke-width="2" d="M915.53,-1079.02C900.65,-1055.01 874.13,-1012.21 856.47,-983.72"/>
<polygon fill="grey" stroke="grey" stroke-width="2" points="859.56,-982.07 851.32,-975.41 853.61,-985.76 859.56,-982.07"/>
</g>
<!-- 7&#45;&gt;4 -->
<g id="edge14" class="edge">
<title>7&#45;&gt;4</title>
<path fill="none" stroke="grey" stroke-width="2" d="M879.85,-1093.89C788.48,-1087.45 580.18,-1070.97 406.67,-1044 406.54,-1043.98 406.4,-1043.96 406.27,-1043.94"/>
<polygon fill="grey" stroke="grey" stroke-width="2" points="407.06,-1040.52 396.62,-1042.31 405.9,-1047.42 407.06,-1040.52"/>
</g>
<!-- 8 -->
<g id="node9" class="node">
<title>8</title>
<path fill="none" stroke="#d8bc56" stroke-width="2" d="M1469.17,-1044C1469.17,-1044 1374.17,-1044 1374.17,-1044 1368.17,-1044 1362.17,-1038 1362.17,-1032 1362.17,-1032 1362.17,-1020 1362.17,-1020 1362.17,-1014 1368.17,-1008 1374.17,-1008 1374.17,-1008 1469.17,-1008 1469.17,-1008 1475.17,-1008 1481.17,-1014 1481.17,-1020 1481.17,-1020 1481.17,-1032 1481.17,-1032 1481.17,-1038 1475.17,-1044 1469.17,-1044"/>
<text text-anchor="middle" x="1421.67" y="-1023.5" font-family="sans" font-size="10.00">site_numbering_map</text>
</g>
<!-- 7&#45;&gt;8 -->
<g id="edge17" class="edge">
<title>7&#45;&gt;8</title>
<path fill="none" stroke="grey" stroke-width="2" d="M973.24,-1090.41C1059.67,-1078.19 1245.49,-1051.91 1348.74,-1037.31"/>
<polygon fill="grey" stroke="grey" stroke-width="2" points="1349.11,-1040.8 1358.52,-1035.93 1348.13,-1033.87 1349.11,-1040.8"/>
</g>
<!-- 7&#45;&gt;10 -->
<g id="edge19" class="edge">
<title>7&#45;&gt;10</title>
<path fill="none" stroke="grey" stroke-width="2" d="M950.41,-1079.07C990.74,-1047.37 1072.64,-977.41 1117.67,-900 1141.56,-858.93 1149.19,-803.37 1151.59,-769.42"/>
<polygon fill="grey" stroke="grey" stroke-width="2" points="1155.07,-769.91 1152.15,-759.73 1148.08,-769.51 1155.07,-769.91"/>
</g>
<!-- 7&#45;&gt;14 -->
<g id="edge31" class="edge">
<title>7&#45;&gt;14</title>
<path fill="none" stroke="grey" stroke-width="2" d="M887.92,-1079.01C849.85,-1058.94 794.03,-1022.53 769.67,-972 737.43,-905.12 761.46,-814.89 777.82,-768.8"/>
<polygon fill="grey" stroke="grey" stroke-width="2" points="781.03,-770.2 781.22,-759.6 774.47,-767.77 781.03,-770.2"/>
</g>
<!-- 7&#45;&gt;17 -->
<g id="edge37" class="edge">
<title>7&#45;&gt;17</title>
<path fill="none" stroke="grey" stroke-width="2" d="M967.46,-1079.23C986.36,-1070.06 1008.59,-1057.87 1026.67,-1044 1150.52,-949 1159.77,-896.55 1227.67,-756 1249.87,-710.05 1233.63,-686.89 1266.67,-648 1278.38,-634.22 1294.62,-623.33 1310.37,-615.1"/>
<polygon fill="grey" stroke="grey" stroke-width="2" points="1311.51,-618.44 1318.95,-610.9 1308.43,-612.15 1311.51,-618.44"/>
</g>
<!-- 7&#45;&gt;18 -->
<g id="edge51" class="edge">
<title>7&#45;&gt;18</title>
<path fill="none" stroke="grey" stroke-width="2" d="M973.45,-1095.72C1178.01,-1089.5 1983.67,-1058.46 1983.67,-955 1983.67,-955 1983.67,-955 1983.67,-233 1983.67,-126.7 1865.36,-167.41 1761.67,-144 1610.2,-109.8 1132,-95.89 972.23,-92.13"/>
<polygon fill="grey" stroke="grey" stroke-width="2" points="972.63,-88.63 962.55,-91.9 972.47,-95.63 972.63,-88.63"/>
</g>
<!-- 7&#45;&gt;29 -->
<g id="edge92" class="edge">
<title>7&#45;&gt;29</title>
<path fill="none" stroke="grey" stroke-width="2" d="M879.91,-1083.64C852.67,-1074.7 818.36,-1061.38 790.67,-1044 507.83,-866.42 340.79,-765.68 354.67,-432 358.75,-334.02 320.6,-274 399.67,-216 437.18,-188.48 748.25,-171.04 870.56,-165.19"/>
<polygon fill="grey" stroke="grey" stroke-width="2" points="870.64,-168.69 880.47,-164.73 870.32,-161.7 870.64,-168.69"/>
</g>
<!-- 8&#45;&gt;3 -->
<g id="edge13" class="edge">
<title>8&#45;&gt;3</title>
<path fill="none" stroke="grey" stroke-width="2" d="M1361.2,-1017.74C1253.39,-1004.79 1028.39,-977.78 911.97,-963.8"/>
<polygon fill="grey" stroke="grey" stroke-width="2" points="912.7,-960.36 902.35,-962.65 911.86,-967.31 912.7,-960.36"/>
</g>
<!-- 8&#45;&gt;10 -->
<g id="edge21" class="edge">
<title>8&#45;&gt;10</title>
<path fill="none" stroke="grey" stroke-width="2" d="M1413.97,-1007.12C1394.85,-964.58 1341.31,-856.09 1266.67,-792 1252.54,-779.87 1235.17,-769.94 1218.29,-762.09"/>
<polygon fill="grey" stroke="grey" stroke-width="2" points="1220.05,-759.04 1209.49,-758.21 1217.23,-765.45 1220.05,-759.04"/>
</g>
<!-- 11 -->
<g id="node12" class="node">
<title>11</title>
<path fill="none" stroke="#56d8c1" stroke-width="2" d="M1515.67,-468C1515.67,-468 1417.67,-468 1417.67,-468 1411.67,-468 1405.67,-462 1405.67,-456 1405.67,-456 1405.67,-444 1405.67,-444 1405.67,-438 1411.67,-432 1417.67,-432 1417.67,-432 1515.67,-432 1515.67,-432 1521.67,-432 1527.67,-438 1527.67,-444 1527.67,-444 1527.67,-456 1527.67,-456 1527.67,-462 1521.67,-468 1515.67,-468"/>
<text text-anchor="middle" x="1466.67" y="-447.5" font-family="sans" font-size="10.00">avg_antibody_escape</text>
</g>
<!-- 8&#45;&gt;11 -->
<g id="edge26" class="edge">
<title>8&#45;&gt;11</title>
<path fill="none" stroke="grey" stroke-width="2" d="M1482.1,-1011.02C1543.2,-992.88 1628.67,-954.69 1628.67,-883 1628.67,-883 1628.67,-883 1628.67,-665 1628.67,-582.91 1551.95,-512.45 1504.1,-476.5"/>
<polygon fill="grey" stroke="grey" stroke-width="2" points="1506.36,-473.82 1496.23,-470.73 1502.23,-479.47 1506.36,-473.82"/>
</g>
<!-- 13 -->
<g id="node14" class="node">
<title>13</title>
<path fill="none" stroke="#d85656" stroke-width="2" d="M1011.17,-612C1011.17,-612 930.17,-612 930.17,-612 924.17,-612 918.17,-606 918.17,-600 918.17,-600 918.17,-588 918.17,-588 918.17,-582 924.17,-576 930.17,-576 930.17,-576 1011.17,-576 1011.17,-576 1017.17,-576 1023.17,-582 1023.17,-588 1023.17,-588 1023.17,-600 1023.17,-600 1023.17,-606 1017.17,-612 1011.17,-612"/>
<text text-anchor="middle" x="970.67" y="-591.5" font-family="sans" font-size="10.00">fit_globalepistasis</text>
</g>
<!-- 8&#45;&gt;13 -->
<g id="edge29" class="edge">
<title>8&#45;&gt;13</title>
<path fill="none" stroke="grey" stroke-width="2" d="M1392.88,-1007.1C1330.42,-967.34 1179.9,-866.43 1077.67,-756 1039.29,-714.54 1005.12,-658 986.22,-624.13"/>
<polygon fill="grey" stroke="grey" stroke-width="2" points="989.31,-622.48 981.43,-615.4 983.17,-625.85 989.31,-622.48"/>
</g>
<!-- 8&#45;&gt;14 -->
<g id="edge30" class="edge">
<title>8&#45;&gt;14</title>
<path fill="none" stroke="grey" stroke-width="2" d="M1361.29,-1014.46C1274.62,-997.87 1111.35,-961.1 983.67,-900 914.02,-866.67 848.24,-802.82 814.07,-766.34"/>
<polygon fill="grey" stroke="grey" stroke-width="2" points="816.7,-764.03 807.34,-759.05 811.55,-768.78 816.7,-764.03"/>
</g>
<!-- 15 -->
<g id="node16" class="node">
<title>15</title>
<path fill="none" stroke="#56d86b" stroke-width="2" d="M1390.67,-540C1390.67,-540 1332.67,-540 1332.67,-540 1326.67,-540 1320.67,-534 1320.67,-528 1320.67,-528 1320.67,-516 1320.67,-516 1320.67,-510 1326.67,-504 1332.67,-504 1332.67,-504 1390.67,-504 1390.67,-504 1396.67,-504 1402.67,-510 1402.67,-516 1402.67,-516 1402.67,-528 1402.67,-528 1402.67,-534 1396.67,-540 1390.67,-540"/>
<text text-anchor="middle" x="1361.67" y="-519.5" font-family="sans" font-size="10.00">fit_polyclonal</text>
</g>
<!-- 8&#45;&gt;15 -->
<g id="edge36" class="edge">
<title>8&#45;&gt;15</title>
<path fill="none" stroke="grey" stroke-width="2" d="M1455.75,-1007.2C1494.56,-984.19 1552.67,-940.19 1552.67,-883 1552.67,-883 1552.67,-883 1552.67,-665 1552.67,-596.43 1472.41,-557.09 1415.95,-537.9"/>
<polygon fill="grey" stroke="grey" stroke-width="2" points="1417.06,-534.58 1406.47,-534.82 1414.9,-541.24 1417.06,-534.58"/>
</g>
<!-- 8&#45;&gt;17 -->
<g id="edge39" class="edge">
<title>8&#45;&gt;17</title>
<path fill="none" stroke="grey" stroke-width="2" d="M1433.61,-1007.03C1449.78,-980.89 1476.67,-930.32 1476.67,-883 1476.67,-883 1476.67,-883 1476.67,-737 1476.67,-696.55 1481.77,-680.48 1457.67,-648 1446.53,-632.99 1429.82,-621.7 1413.45,-613.48"/>
<polygon fill="grey" stroke="grey" stroke-width="2" points="1414.96,-610.32 1404.42,-609.3 1412.02,-616.68 1414.96,-610.32"/>
</g>
<!-- 8&#45;&gt;18 -->
<g id="edge46" class="edge">
<title>8&#45;&gt;18</title>
<path fill="none" stroke="grey" stroke-width="2" d="M1481.96,-1023.56C1545.5,-1020.02 1647.19,-1008.52 1726.67,-972 1783.19,-946.03 1834.67,-945.2 1834.67,-883 1834.67,-883 1834.67,-883 1834.67,-449 1834.67,-304.59 1849.63,-212.8 1722.67,-144 1657,-108.42 1140.78,-95.3 972.51,-91.94"/>
<polygon fill="grey" stroke="grey" stroke-width="2" points="972.71,-88.45 962.64,-91.75 972.57,-95.45 972.71,-88.45"/>
</g>
<!-- 8&#45;&gt;29 -->
<g id="edge87" class="edge">
<title>8&#45;&gt;29</title>
<path fill="none" stroke="grey" stroke-width="2" d="M1481.85,-1024.54C1575.55,-1020.31 1745.67,-996.93 1745.67,-883 1745.67,-883 1745.67,-883 1745.67,-521 1745.67,-431.76 1699.79,-409.7 1625.67,-360 1545.45,-306.21 1290.6,-296.09 1204.67,-252 1182.5,-240.62 1184.05,-226.98 1161.67,-216 1128.22,-199.58 1029.17,-181.11 968.66,-170.88"/>
<polygon fill="grey" stroke="grey" stroke-width="2" points="969.43,-167.46 958.99,-169.27 968.28,-174.37 969.43,-167.46"/>
</g>
<!-- 9 -->
<g id="node10" class="node">
<title>9</title>
<path fill="none" stroke="#56a9d8" stroke-width="2" d="M1436.17,-684C1436.17,-684 1287.17,-684 1287.17,-684 1281.17,-684 1275.17,-678 1275.17,-672 1275.17,-672 1275.17,-660 1275.17,-660 1275.17,-654 1281.17,-648 1287.17,-648 1287.17,-648 1436.17,-648 1436.17,-648 1442.17,-648 1448.17,-654 1448.17,-660 1448.17,-660 1448.17,-672 1448.17,-672 1448.17,-678 1442.17,-684 1436.17,-684"/>
<text text-anchor="middle" x="1361.67" y="-663.5" font-family="sans" font-size="10.00">check_adequate_variant_counts</text>
</g>
<!-- 9&#45;&gt;0 -->
<g id="edge3" class="edge">
<title>9&#45;&gt;0</title>
<path fill="none" stroke="grey" stroke-width="2" d="M1434.56,-647.05C1548.53,-615.36 1768.96,-538.92 1895.67,-396 1945.38,-339.93 1945.67,-309.93 1945.67,-235 1945.67,-235 1945.67,-235 1945.67,-161 1945.67,-120.03 1946.5,-104.59 1921.67,-72 1908.9,-55.24 1889.19,-42.78 1871.46,-34.16"/>
<polygon fill="grey" stroke="grey" stroke-width="2" points="1872.93,-30.98 1862.37,-30.05 1870.04,-37.36 1872.93,-30.98"/>
</g>
<!-- 9&#45;&gt;17 -->
<g id="edge38" class="edge">
<title>9&#45;&gt;17</title>
<path fill="none" stroke="grey" stroke-width="2" d="M1361.67,-647.34C1361.67,-640.75 1361.67,-633.08 1361.67,-625.67"/>
<polygon fill="grey" stroke="grey" stroke-width="2" points="1365.17,-625.93 1361.67,-615.93 1358.17,-625.93 1365.17,-625.93"/>
</g>
<!-- 10&#45;&gt;9 -->
<g id="edge18" class="edge">
<title>10&#45;&gt;9</title>
<path fill="none" stroke="grey" stroke-width="2" d="M1206.22,-719.06C1233.63,-709.88 1267.23,-698.63 1296.17,-688.94"/>
<polygon fill="grey" stroke="grey" stroke-width="2" points="1297.02,-692.35 1305.39,-685.85 1294.8,-685.71 1297.02,-692.35"/>
</g>
<!-- 10&#45;&gt;18 -->
<g id="edge48" class="edge">
<title>10&#45;&gt;18</title>
<path fill="none" stroke="grey" stroke-width="2" d="M1219.45,-730.87C1296.66,-722.84 1418.21,-707.02 1457.67,-684 1670.86,-559.61 1852.69,-443.39 1756.67,-216 1738.82,-173.73 1724.56,-162.73 1682.67,-144 1618.23,-115.18 1134.39,-97.67 972.36,-92.57"/>
<polygon fill="grey" stroke="grey" stroke-width="2" points="972.61,-89.07 962.5,-92.26 972.39,-96.07 972.61,-89.07"/>
</g>
<!-- 10&#45;&gt;25 -->
<g id="edge77" class="edge">
<title>10&#45;&gt;25</title>
<path fill="none" stroke="grey" stroke-width="2" d="M1130.87,-719.31C1103.1,-694.64 1058.67,-647.03 1058.67,-595 1058.67,-595 1058.67,-595 1058.67,-449 1058.67,-405.45 1045.3,-393.66 1017.67,-360 1009.01,-349.45 997.79,-339.94 986.75,-331.99"/>
<polygon fill="grey" stroke="grey" stroke-width="2" points="989.04,-329.31 978.81,-326.56 985.09,-335.09 989.04,-329.31"/>
</g>
<!-- 10&#45;&gt;29 -->
<g id="edge89" class="edge">
<title>10&#45;&gt;29</title>
<path fill="none" stroke="grey" stroke-width="2" d="M1148.94,-719.16C1143.67,-692.34 1134.67,-639.98 1134.67,-595 1134.67,-595 1134.67,-595 1134.67,-449 1134.67,-404.87 1113.78,-397.59 1090.67,-360 1088.04,-355.73 985.12,-219.64 981.67,-216 972.78,-206.61 962.35,-197.18 952.61,-188.93"/>
<polygon fill="grey" stroke="grey" stroke-width="2" points="955.06,-186.42 945.12,-182.74 950.6,-191.81 955.06,-186.42"/>
</g>
<!-- 11&#45;&gt;0 -->
<g id="edge1" class="edge">
<title>11&#45;&gt;0</title>
<path fill="none" stroke="grey" stroke-width="2" d="M1528.32,-444.23C1641.21,-431.77 1869.67,-387.69 1869.67,-235 1869.67,-235 1869.67,-235 1869.67,-161 1869.67,-121.16 1855.54,-77.11 1844.52,-48.8"/>
<polygon fill="grey" stroke="grey" stroke-width="2" points="1847.86,-47.73 1840.87,-39.77 1841.37,-50.36 1847.86,-47.73"/>
</g>
<!-- 11&#45;&gt;18 -->
<g id="edge58" class="edge">
<title>11&#45;&gt;18</title>
<path fill="none" stroke="grey" stroke-width="2" d="M1528.6,-442.81C1566.99,-436.33 1615.51,-423.08 1650.67,-396 1720.91,-341.89 1778.67,-294.08 1736.67,-216 1709.17,-164.87 1682.61,-162.77 1627.67,-144 1506.36,-102.55 1114.77,-93.47 972.2,-91.52"/>
<polygon fill="grey" stroke="grey" stroke-width="2" points="972.67,-88.03 962.62,-91.4 972.57,-95.02 972.67,-88.03"/>
</g>
<!-- 19 -->
<g id="node20" class="node">
<title>19</title>
<path fill="none" stroke="#566bd8" stroke-width="2" d="M1715.67,-252C1715.67,-252 1619.67,-252 1619.67,-252 1613.67,-252 1607.67,-246 1607.67,-240 1607.67,-240 1607.67,-228 1607.67,-228 1607.67,-222 1613.67,-216 1619.67,-216 1619.67,-216 1715.67,-216 1715.67,-216 1721.67,-216 1727.67,-222 1727.67,-228 1727.67,-228 1727.67,-240 1727.67,-240 1727.67,-246 1721.67,-252 1715.67,-252"/>
<text text-anchor="middle" x="1667.67" y="-231.5" font-family="sans" font-size="10.00">color_PDB_structures</text>
</g>
<!-- 11&#45;&gt;19 -->
<g id="edge64" class="edge">
<title>11&#45;&gt;19</title>
<path fill="none" stroke="grey" stroke-width="2" d="M1528.66,-442.59C1561.72,-436.03 1600.62,-422.77 1625.67,-396 1659.04,-360.34 1666.65,-301.56 1667.97,-265.76"/>
<polygon fill="grey" stroke="grey" stroke-width="2" points="1671.47,-265.91 1668.16,-255.84 1664.47,-265.78 1671.47,-265.91"/>
</g>
<!-- 22 -->
<g id="node23" class="node">
<title>22</title>
<path fill="none" stroke="#68d856" stroke-width="2" d="M1388.67,-396C1388.67,-396 1326.67,-396 1326.67,-396 1320.67,-396 1314.67,-390 1314.67,-384 1314.67,-384 1314.67,-372 1314.67,-372 1314.67,-366 1320.67,-360 1326.67,-360 1326.67,-360 1388.67,-360 1388.67,-360 1394.67,-360 1400.67,-366 1400.67,-372 1400.67,-372 1400.67,-384 1400.67,-384 1400.67,-390 1394.67,-396 1388.67,-396"/>
<text text-anchor="middle" x="1357.67" y="-375.5" font-family="sans" font-size="10.00">validation_ICs</text>
</g>
<!-- 11&#45;&gt;22 -->
<g id="edge67" class="edge">
<title>11&#45;&gt;22</title>
<path fill="none" stroke="grey" stroke-width="2" d="M1438.88,-431.15C1425.94,-422.84 1410.33,-412.82 1396.27,-403.79"/>
<polygon fill="grey" stroke="grey" stroke-width="2" points="1398.26,-400.91 1387.95,-398.45 1394.48,-406.8 1398.26,-400.91"/>
</g>
<!-- 11&#45;&gt;25 -->
<g id="edge71" class="edge">
<title>11&#45;&gt;25</title>
<path fill="none" stroke="grey" stroke-width="2" d="M1404.89,-434.3C1366.47,-424.62 1316.25,-411 1272.67,-396 1233.49,-382.51 1226.18,-372.48 1186.67,-360 1122.86,-339.84 1047.22,-324.61 997.7,-315.76"/>
<polygon fill="grey" stroke="grey" stroke-width="2" points="998.51,-312.35 988.06,-314.07 997.3,-319.24 998.51,-312.35"/>
</g>
<!-- 28 -->
<g id="node29" class="node">
<title>28</title>
<path fill="none" stroke="#59d856" stroke-width="2" d="M1539.17,-252C1539.17,-252 1402.17,-252 1402.17,-252 1396.17,-252 1390.17,-246 1390.17,-240 1390.17,-240 1390.17,-228 1390.17,-228 1390.17,-222 1396.17,-216 1402.17,-216 1402.17,-216 1539.17,-216 1539.17,-216 1545.17,-216 1551.17,-222 1551.17,-228 1551.17,-228 1551.17,-240 1551.17,-240 1551.17,-246 1545.17,-252 1539.17,-252"/>
<text text-anchor="middle" x="1470.67" y="-231.5" font-family="sans" font-size="10.00">format_antibody_escape_plot</text>
</g>
<!-- 11&#45;&gt;28 -->
<g id="edge83" class="edge">
<title>11&#45;&gt;28</title>
<path fill="none" stroke="grey" stroke-width="2" d="M1467.01,-431.12C1467.69,-394.62 1469.25,-311.13 1470.1,-265.74"/>
<polygon fill="grey" stroke="grey" stroke-width="2" points="1473.59,-266.07 1470.28,-256 1466.59,-265.94 1473.59,-266.07"/>
</g>
<!-- 11&#45;&gt;29 -->
<g id="edge99" class="edge">
<title>11&#45;&gt;29</title>
<path fill="none" stroke="grey" stroke-width="2" d="M1404.96,-432.44C1374.42,-423.31 1337.4,-410.81 1305.67,-396 1278.18,-383.17 1215.04,-340.64 1189.67,-324 1142.66,-293.17 1129.32,-287.44 1085.67,-252 1067.61,-237.34 1067.19,-228.66 1047.67,-216 1023.16,-200.1 993.09,-187.35 968.25,-178.35"/>
<polygon fill="grey" stroke="grey" stroke-width="2" points="969.62,-175.12 959.02,-175.11 967.3,-181.73 969.62,-175.12"/>
</g>
<!-- 12 -->
<g id="node13" class="node">
<title>12</title>
<path fill="none" stroke="#569ad8" stroke-width="2" d="M834.67,-540C834.67,-540 766.67,-540 766.67,-540 760.67,-540 754.67,-534 754.67,-528 754.67,-528 754.67,-516 754.67,-516 754.67,-510 760.67,-504 766.67,-504 766.67,-504 834.67,-504 834.67,-504 840.67,-504 846.67,-510 846.67,-516 846.67,-516 846.67,-528 846.67,-528 846.67,-534 840.67,-540 834.67,-540"/>
<text text-anchor="middle" x="800.67" y="-519.5" font-family="sans" font-size="10.00">avg_muteffects</text>
</g>
<!-- 12&#45;&gt;0 -->
<g id="edge4" class="edge">
<title>12&#45;&gt;0</title>
<path fill="none" stroke="grey" stroke-width="2" d="M753.83,-517.8C682.93,-512.17 544.53,-498.11 430.67,-468 221.29,-412.62 2.67,-451.58 2.67,-235 2.67,-235 2.67,-235 2.67,-161 2.67,-68.16 1520.33,-26.63 1790.72,-19.97"/>
<polygon fill="grey" stroke="grey" stroke-width="2" points="1790.74,-23.47 1800.65,-19.73 1790.57,-16.47 1790.74,-23.47"/>
</g>
<!-- 12&#45;&gt;11 -->
<g id="edge25" class="edge">
<title>12&#45;&gt;11</title>
<path fill="none" stroke="grey" stroke-width="2" d="M847.5,-516.08C961.38,-504.11 1253.54,-473.4 1391.89,-458.86"/>
<polygon fill="grey" stroke="grey" stroke-width="2" points="1392.19,-462.35 1401.77,-457.82 1391.46,-455.39 1392.19,-462.35"/>
</g>
<!-- 12&#45;&gt;18 -->
<g id="edge62" class="edge">
<title>12&#45;&gt;18</title>
<path fill="none" stroke="grey" stroke-width="2" d="M753.94,-515.21C644.86,-500.39 382.67,-456.7 382.67,-379 382.67,-379 382.67,-379 382.67,-233 382.67,-178.3 418.72,-168.41 467.67,-144 536.68,-109.59 763.23,-96.84 866.96,-92.73"/>
<polygon fill="grey" stroke="grey" stroke-width="2" points="866.99,-96.23 876.85,-92.35 866.72,-89.23 866.99,-96.23"/>
</g>
<!-- 23 -->
<g id="node24" class="node">
<title>23</title>
<path fill="none" stroke="#56d89a" stroke-width="2" d="M790.17,-396C790.17,-396 635.17,-396 635.17,-396 629.17,-396 623.17,-390 623.17,-384 623.17,-384 623.17,-372 623.17,-372 623.17,-366 629.17,-360 635.17,-360 635.17,-360 790.17,-360 790.17,-360 796.17,-360 802.17,-366 802.17,-372 802.17,-372 802.17,-384 802.17,-384 802.17,-390 796.17,-396 790.17,-396"/>
<text text-anchor="middle" x="712.67" y="-375.5" font-family="sans" font-size="10.00">mutations_vs_natural_sequences</text>
</g>
<!-- 12&#45;&gt;23 -->
<g id="edge68" class="edge">
<title>12&#45;&gt;23</title>
<path fill="none" stroke="grey" stroke-width="2" d="M789.53,-503.02C774.65,-479.01 748.13,-436.21 730.47,-407.72"/>
<polygon fill="grey" stroke="grey" stroke-width="2" points="733.56,-406.07 725.32,-399.41 727.61,-409.76 733.56,-406.07"/>
</g>
<!-- 12&#45;&gt;25 -->
<g id="edge78" class="edge">
<title>12&#45;&gt;25</title>
<path fill="none" stroke="grey" stroke-width="2" d="M817.46,-503.31C826.28,-493.43 836.85,-480.6 844.67,-468 872.37,-423.37 863.14,-403.44 892.67,-360 898.91,-350.83 906.82,-341.84 914.59,-333.94"/>
<polygon fill="grey" stroke="grey" stroke-width="2" points="916.97,-336.51 921.69,-327.02 912.08,-331.49 916.97,-336.51"/>
</g>
<!-- 26 -->
<g id="node27" class="node">
<title>26</title>
<path fill="none" stroke="#9fd856" stroke-width="2" d="M571.17,-252C571.17,-252 464.17,-252 464.17,-252 458.17,-252 452.17,-246 452.17,-240 452.17,-240 452.17,-228 452.17,-228 452.17,-222 458.17,-216 464.17,-216 464.17,-216 571.17,-216 571.17,-216 577.17,-216 583.17,-222 583.17,-228 583.17,-228 583.17,-240 583.17,-240 583.17,-246 577.17,-252 571.17,-252"/>
<text text-anchor="middle" x="517.67" y="-231.5" font-family="sans" font-size="10.00">format_muteffects_plot</text>
</g>
<!-- 12&#45;&gt;26 -->
<g id="edge82" class="edge">
<title>12&#45;&gt;26</title>
<path fill="none" stroke="grey" stroke-width="2" d="M764.5,-503.14C724.08,-481.84 658.45,-443.15 613.67,-396 575.85,-356.17 546.17,-298.88 530.34,-264.47"/>
<polygon fill="grey" stroke="grey" stroke-width="2" points="533.67,-263.35 526.38,-255.66 527.29,-266.21 533.67,-263.35"/>
</g>
<!-- 12&#45;&gt;29 -->
<g id="edge103" class="edge">
<title>12&#45;&gt;29</title>
<path fill="none" stroke="grey" stroke-width="2" d="M806.57,-503.25C825.65,-445.87 885.78,-264.97 909.71,-192.98"/>
<polygon fill="grey" stroke="grey" stroke-width="2" points="912.95,-194.33 912.78,-183.73 906.3,-192.12 912.95,-194.33"/>
</g>
<!-- 13&#45;&gt;12 -->
<g id="edge27" class="edge">
<title>13&#45;&gt;12</title>
<path fill="none" stroke="grey" stroke-width="2" d="M927.33,-575.15C905.64,-566.22 879.13,-555.31 855.98,-545.77"/>
<polygon fill="grey" stroke="grey" stroke-width="2" points="857.6,-542.66 847.02,-542.09 854.94,-549.13 857.6,-542.66"/>
</g>
<!-- 13&#45;&gt;18 -->
<g id="edge42" class="edge">
<title>13&#45;&gt;18</title>
<path fill="none" stroke="grey" stroke-width="2" d="M917.56,-592.71C814.92,-589.73 585.77,-571.04 430.67,-468 372.63,-429.44 373.48,-393.51 368.67,-324 363.06,-242.86 335.55,-191.36 401.67,-144 438.99,-117.27 743.13,-99.6 867.24,-93.43"/>
<polygon fill="grey" stroke="grey" stroke-width="2" points="867.22,-96.94 877.04,-92.95 866.88,-89.94 867.22,-96.94"/>
</g>
<!-- 13&#45;&gt;25 -->
<g id="edge70" class="edge">
<title>13&#45;&gt;25</title>
<path fill="none" stroke="grey" stroke-width="2" d="M981.99,-575.13C987.61,-565.2 993.8,-552.38 996.67,-540 1014.76,-462.07 1026.93,-434.06 996.67,-360 992.69,-350.27 985.97,-341.36 978.66,-333.73"/>
<polygon fill="grey" stroke="grey" stroke-width="2" points="981.1,-331.22 971.44,-326.88 976.28,-336.3 981.1,-331.22"/>
</g>
<!-- 13&#45;&gt;29 -->
<g id="edge84" class="edge">
<title>13&#45;&gt;29</title>
<path fill="none" stroke="grey" stroke-width="2" d="M988.87,-575.27C1026.41,-536.46 1106.21,-440.98 1072.67,-360 1064.01,-339.09 1051.57,-341.03 1036.67,-324 1010.15,-293.7 1005.41,-284.53 981.67,-252 967.1,-232.03 951.18,-209.15 939.11,-191.58"/>
<polygon fill="grey" stroke="grey" stroke-width="2" points="942.04,-189.67 933.51,-183.39 936.26,-193.62 942.04,-189.67"/>
</g>
<!-- 14&#45;&gt;13 -->
<g id="edge28" class="edge">
<title>14&#45;&gt;13</title>
<path fill="none" stroke="grey" stroke-width="2" d="M812.6,-719.02C844.28,-694.16 901.65,-649.15 937.87,-620.73"/>
<polygon fill="grey" stroke="grey" stroke-width="2" points="939.84,-623.63 945.55,-614.71 935.52,-618.13 939.84,-623.63"/>
</g>
<!-- 20 -->
<g id="node21" class="node">
<title>20</title>
<path fill="none" stroke="#88d856" stroke-width="2" d="M516.67,-396C516.67,-396 422.67,-396 422.67,-396 416.67,-396 410.67,-390 410.67,-384 410.67,-384 410.67,-372 410.67,-372 410.67,-366 416.67,-360 422.67,-360 422.67,-360 516.67,-360 516.67,-360 522.67,-360 528.67,-366 528.67,-372 528.67,-372 528.67,-384 528.67,-384 528.67,-390 522.67,-396 516.67,-396"/>
<text text-anchor="middle" x="469.67" y="-375.5" font-family="sans" font-size="10.00">analyze_func_scores</text>
</g>
<!-- 14&#45;&gt;20 -->
<g id="edge65" class="edge">
<title>14&#45;&gt;20</title>
<path fill="none" stroke="grey" stroke-width="2" d="M751.94,-736.98C667.71,-734.76 471.67,-716.53 471.67,-595 471.67,-595 471.67,-595 471.67,-521 471.67,-482.65 470.93,-438.48 470.35,-409.72"/>
<polygon fill="grey" stroke="grey" stroke-width="2" points="473.86,-409.88 470.15,-399.96 466.86,-410.03 473.86,-409.88"/>
</g>
<!-- 15&#45;&gt;11 -->
<g id="edge24" class="edge">
<title>15&#45;&gt;11</title>
<path fill="none" stroke="grey" stroke-width="2" d="M1388.44,-503.15C1400.9,-494.84 1415.94,-484.82 1429.49,-475.79"/>
<polygon fill="grey" stroke="grey" stroke-width="2" points="1431.05,-478.95 1437.43,-470.49 1427.17,-473.13 1431.05,-478.95"/>
</g>
<!-- 15&#45;&gt;18 -->
<g id="edge54" class="edge">
<title>15&#45;&gt;18</title>
<path fill="none" stroke="grey" stroke-width="2" d="M1368.78,-503.02C1381.89,-469.76 1408.65,-401.51 1409.67,-396 1425.7,-309.56 1383.82,-283.64 1327.67,-216 1296.05,-177.91 1287.62,-164.76 1242.67,-144 1153.87,-102.98 1038.44,-93.16 972.36,-91.13"/>
<polygon fill="grey" stroke="grey" stroke-width="2" points="972.53,-87.63 962.45,-90.89 972.36,-94.63 972.53,-87.63"/>
</g>
<!-- 15&#45;&gt;25 -->
<g id="edge75" class="edge">
<title>15&#45;&gt;25</title>
<path fill="none" stroke="grey" stroke-width="2" d="M1319.75,-512.51C1285.21,-504.37 1235.72,-490.03 1196.67,-468 1133.02,-432.09 1134.8,-398.48 1072.67,-360 1049.16,-345.44 1020.96,-333.27 997.01,-324.28"/>
<polygon fill="grey" stroke="grey" stroke-width="2" points="998.36,-321.04 987.77,-320.91 995.97,-327.62 998.36,-321.04"/>
</g>
<!-- 15&#45;&gt;29 -->
<g id="edge95" class="edge">
<title>15&#45;&gt;29</title>
<path fill="none" stroke="grey" stroke-width="2" d="M1339.95,-503.19C1288.37,-460.71 1154.8,-349.72 1047.67,-252 1030.48,-236.32 1028.26,-229.99 1009.67,-216 995.95,-205.67 980.07,-195.74 965.5,-187.31"/>
<polygon fill="grey" stroke="grey" stroke-width="2" points="967.23,-184.27 956.8,-182.39 963.78,-190.36 967.23,-184.27"/>
</g>
<!-- 16 -->
<g id="node17" class="node">
<title>16</title>
<path fill="none" stroke="#ced856" stroke-width="2" d="M1254.17,-612C1254.17,-612 1177.17,-612 1177.17,-612 1171.17,-612 1165.17,-606 1165.17,-600 1165.17,-600 1165.17,-588 1165.17,-588 1165.17,-582 1171.17,-576 1177.17,-576 1177.17,-576 1254.17,-576 1254.17,-576 1260.17,-576 1266.17,-582 1266.17,-588 1266.17,-588 1266.17,-600 1266.17,-600 1266.17,-606 1260.17,-612 1254.17,-612"/>
<text text-anchor="middle" x="1215.67" y="-591.5" font-family="sans" font-size="10.00">spatial_distances</text>
</g>
<!-- 16&#45;&gt;15 -->
<g id="edge34" class="edge">
<title>16&#45;&gt;15</title>
<path fill="none" stroke="grey" stroke-width="2" d="M1252.89,-575.15C1271.01,-566.47 1293.04,-555.91 1312.52,-546.56"/>
<polygon fill="grey" stroke="grey" stroke-width="2" points="1314.03,-549.72 1321.54,-542.24 1311.01,-543.41 1314.03,-549.72"/>
</g>
<!-- 17&#45;&gt;15 -->
<g id="edge35" class="edge">
<title>17&#45;&gt;15</title>
<path fill="none" stroke="grey" stroke-width="2" d="M1361.67,-575.34C1361.67,-568.75 1361.67,-561.08 1361.67,-553.67"/>
<polygon fill="grey" stroke="grey" stroke-width="2" points="1365.17,-553.93 1361.67,-543.93 1358.17,-553.93 1365.17,-553.93"/>
</g>
<!-- 21 -->
<g id="node22" class="node">
<title>21</title>
<path fill="none" stroke="#d8ac56" stroke-width="2" d="M1604.67,-396C1604.67,-396 1506.67,-396 1506.67,-396 1500.67,-396 1494.67,-390 1494.67,-384 1494.67,-384 1494.67,-372 1494.67,-372 1494.67,-366 1500.67,-360 1506.67,-360 1506.67,-360 1604.67,-360 1604.67,-360 1610.67,-360 1616.67,-366 1616.67,-372 1616.67,-372 1616.67,-384 1616.67,-384 1616.67,-390 1610.67,-396 1604.67,-396"/>
<text text-anchor="middle" x="1555.67" y="-375.5" font-family="sans" font-size="10.00">analyze_prob_escape</text>
</g>
<!-- 17&#45;&gt;21 -->
<g id="edge66" class="edge">
<title>17&#45;&gt;21</title>
<path fill="none" stroke="grey" stroke-width="2" d="M1401.34,-575.46C1441.86,-555.43 1503.4,-518.74 1536.67,-468 1547.99,-450.73 1552.71,-427.9 1554.61,-409.69"/>
<polygon fill="grey" stroke="grey" stroke-width="2" points="1558.09,-410.08 1555.35,-399.84 1551.11,-409.55 1558.09,-410.08"/>
</g>
<!-- 18&#45;&gt;0 -->
<g id="edge2" class="edge">
<title>18&#45;&gt;0</title>
<path fill="none" stroke="grey" stroke-width="2" d="M959.45,-85.95C1109.54,-74.43 1640.65,-33.66 1791.47,-22.09"/>
<polygon fill="grey" stroke="grey" stroke-width="2" points="1791.34,-25.61 1801.05,-21.35 1790.81,-18.63 1791.34,-25.61"/>
</g>
<!-- 19&#45;&gt;0 -->
<g id="edge5" class="edge">
<title>19&#45;&gt;0</title>
<path fill="none" stroke="grey" stroke-width="2" d="M1681.37,-215.12C1709.89,-177.91 1775.82,-91.87 1810.1,-47.15"/>
<polygon fill="grey" stroke="grey" stroke-width="2" points="1812.75,-49.45 1816.05,-39.38 1807.19,-45.19 1812.75,-49.45"/>
</g>
<!-- 19&#45;&gt;18 -->
<g id="edge63" class="edge">
<title>19&#45;&gt;18</title>
<path fill="none" stroke="grey" stroke-width="2" d="M1658.71,-215.31C1646.95,-194.2 1624.18,-159.8 1593.67,-144 1538.97,-115.68 1120.8,-98.17 972.02,-92.78"/>
<polygon fill="grey" stroke="grey" stroke-width="2" points="972.44,-89.29 962.32,-92.43 972.19,-96.29 972.44,-89.29"/>
</g>
<!-- 19&#45;&gt;29 -->
<g id="edge104" class="edge">
<title>19&#45;&gt;29</title>
<path fill="none" stroke="grey" stroke-width="2" d="M1606.67,-222.5C1591.66,-220.14 1575.61,-217.8 1560.67,-216 1340.6,-189.46 1076.4,-172.21 968.84,-165.8"/>
<polygon fill="grey" stroke="grey" stroke-width="2" points="969.12,-162.31 958.93,-165.22 968.71,-169.3 969.12,-162.31"/>
</g>
<!-- 20&#45;&gt;18 -->
<g id="edge50" class="edge">
<title>20&#45;&gt;18</title>
<path fill="none" stroke="grey" stroke-width="2" d="M459.88,-359.38C444.11,-328.45 417.3,-263.17 442.67,-216 470.18,-164.87 497.4,-164.64 551.67,-144 658.59,-103.34 793.84,-93.58 866.95,-91.42"/>
<polygon fill="grey" stroke="grey" stroke-width="2" points="866.92,-94.92 876.83,-91.17 866.75,-87.92 866.92,-94.92"/>
</g>
<!-- 20&#45;&gt;25 -->
<g id="edge72" class="edge">
<title>20&#45;&gt;25</title>
<path fill="none" stroke="grey" stroke-width="2" d="M529.35,-368.21C622.82,-354.43 802.29,-327.98 891.55,-314.83"/>
<polygon fill="grey" stroke="grey" stroke-width="2" points="891.93,-318.31 901.31,-313.39 890.9,-311.39 891.93,-318.31"/>
</g>
<!-- 20&#45;&gt;29 -->
<g id="edge91" class="edge">
<title>20&#45;&gt;29</title>
<path fill="none" stroke="grey" stroke-width="2" d="M490.88,-359.22C531.28,-326.24 623.14,-255.35 711.67,-216 763.67,-192.89 827.64,-178.49 870.8,-170.63"/>
<polygon fill="grey" stroke="grey" stroke-width="2" points="871.27,-174.11 880.51,-168.93 870.06,-167.21 871.27,-174.11"/>
</g>
<!-- 21&#45;&gt;18 -->
<g id="edge45" class="edge">
<title>21&#45;&gt;18</title>
<path fill="none" stroke="grey" stroke-width="2" d="M1562.1,-359.4C1572.42,-327.93 1588.79,-261.08 1560.67,-216 1522.17,-154.27 1483.56,-164.19 1413.67,-144 1257.68,-98.95 1063.99,-91.49 972.39,-90.7"/>
<polygon fill="grey" stroke="grey" stroke-width="2" points="972.68,-87.21 962.66,-90.65 972.64,-94.21 972.68,-87.21"/>
</g>
<!-- 21&#45;&gt;25 -->
<g id="edge80" class="edge">
<title>21&#45;&gt;25</title>
<path fill="none" stroke="grey" stroke-width="2" d="M1493.87,-369.77C1467.87,-366.74 1437.3,-363.18 1409.67,-360 1260.49,-342.81 1084.36,-322.82 997.94,-313.03"/>
<polygon fill="grey" stroke="grey" stroke-width="2" points="998.44,-309.56 988.11,-311.92 997.65,-316.52 998.44,-309.56"/>
</g>
<!-- 21&#45;&gt;29 -->
<g id="edge86" class="edge">
<title>21&#45;&gt;29</title>
<path fill="none" stroke="grey" stroke-width="2" d="M1493.68,-363.49C1415.64,-345.02 1278.84,-307.67 1171.67,-252 1148.01,-239.71 1147.7,-227.57 1123.67,-216 1073.73,-191.95 1011.47,-177.8 968.95,-170.26"/>
<polygon fill="grey" stroke="grey" stroke-width="2" points="969.59,-166.82 959.14,-168.59 968.41,-173.72 969.59,-166.82"/>
</g>
<!-- 22&#45;&gt;18 -->
<g id="edge52" class="edge">
<title>22&#45;&gt;18</title>
<path fill="none" stroke="grey" stroke-width="2" d="M1353.88,-359.16C1345.6,-321.75 1325.03,-236.83 1304.67,-216 1214.19,-123.43 1054.6,-99.36 972.19,-93.14"/>
<polygon fill="grey" stroke="grey" stroke-width="2" points="972.64,-89.66 962.43,-92.48 972.17,-96.64 972.64,-89.66"/>
</g>
<!-- 22&#45;&gt;25 -->
<g id="edge73" class="edge">
<title>22&#45;&gt;25</title>
<path fill="none" stroke="grey" stroke-width="2" d="M1313.7,-369.02C1297.65,-366.14 1279.35,-362.88 1262.67,-360 1169.6,-343.92 1061.06,-326.01 997.88,-315.67"/>
<polygon fill="grey" stroke="grey" stroke-width="2" points="998.53,-312.23 988.09,-314.07 997.4,-319.14 998.53,-312.23"/>
</g>
<!-- 22&#45;&gt;29 -->
<g id="edge93" class="edge">
<title>22&#45;&gt;29</title>
<path fill="none" stroke="grey" stroke-width="2" d="M1322.28,-359.14C1277.4,-336.06 1198.09,-293.86 1133.67,-252 1111.31,-237.47 1109.37,-228.23 1085.67,-216 1048.24,-196.69 1002.43,-182.71 968.42,-173.97"/>
<polygon fill="grey" stroke="grey" stroke-width="2" points="969.5,-170.63 958.95,-171.61 967.8,-177.42 969.5,-170.63"/>
</g>
<!-- 23&#45;&gt;18 -->
<g id="edge56" class="edge">
<title>23&#45;&gt;18</title>
<path fill="none" stroke="grey" stroke-width="2" d="M709.63,-359.03C703.37,-315.32 694.19,-202.73 753.67,-144 783.87,-114.18 830.81,-101.13 867.09,-95.42"/>
<polygon fill="grey" stroke="grey" stroke-width="2" points="867.5,-98.9 876.92,-94.05 866.53,-91.96 867.5,-98.9"/>
</g>
<!-- 23&#45;&gt;25 -->
<g id="edge81" class="edge">
<title>23&#45;&gt;25</title>
<path fill="none" stroke="grey" stroke-width="2" d="M772.12,-359.06C809.23,-347.87 856.56,-333.59 892.26,-322.81"/>
<polygon fill="grey" stroke="grey" stroke-width="2" points="892.91,-326.27 901.47,-320.03 890.89,-319.57 892.91,-326.27"/>
</g>
<!-- 23&#45;&gt;29 -->
<g id="edge97" class="edge">
<title>23&#45;&gt;29</title>
<path fill="none" stroke="grey" stroke-width="2" d="M729.82,-359.08C758.34,-329.29 817.37,-267.75 867.67,-216 875.94,-207.5 884.98,-198.26 893.17,-189.91"/>
<polygon fill="grey" stroke="grey" stroke-width="2" points="895.66,-192.37 900.17,-182.78 890.67,-187.46 895.66,-192.37"/>
</g>
<!-- 24 -->
<g id="node25" class="node">
<title>24</title>
<path fill="none" stroke="#56d8d0" stroke-width="2" d="M803.17,-252C803.17,-252 766.17,-252 766.17,-252 760.17,-252 754.17,-246 754.17,-240 754.17,-240 754.17,-228 754.17,-228 754.17,-222 760.17,-216 766.17,-216 766.17,-216 803.17,-216 803.17,-216 809.17,-216 815.17,-222 815.17,-228 815.17,-228 815.17,-240 815.17,-240 815.17,-246 809.17,-252 803.17,-252"/>
<text text-anchor="middle" x="784.67" y="-231.5" font-family="sans" font-size="10.00">subindex</text>
</g>
<!-- 24&#45;&gt;18 -->
<g id="edge59" class="edge">
<title>24&#45;&gt;18</title>
<path fill="none" stroke="grey" stroke-width="2" d="M801.77,-215.02C825,-190.58 866.73,-146.69 893.8,-118.21"/>
<polygon fill="grey" stroke="grey" stroke-width="2" points="896.27,-120.69 900.63,-111.03 891.2,-115.87 896.27,-120.69"/>
</g>
<!-- 24&#45;&gt;29 -->
<g id="edge100" class="edge">
<title>24&#45;&gt;29</title>
<path fill="none" stroke="grey" stroke-width="2" d="M815.98,-216.76C833.14,-207.87 854.73,-196.67 873.76,-186.81"/>
<polygon fill="grey" stroke="grey" stroke-width="2" points="875.26,-189.97 882.52,-182.26 872.04,-183.76 875.26,-189.97"/>
</g>
<!-- 25&#45;&gt;18 -->
<g id="edge61" class="edge">
<title>25&#45;&gt;18</title>
<path fill="none" stroke="grey" stroke-width="2" d="M904.38,-300.11C851.75,-292.8 764,-277.12 744.67,-252 699.99,-193.94 801.34,-139.01 867.74,-110.77"/>
<polygon fill="grey" stroke="grey" stroke-width="2" points="869,-114.04 876.89,-106.97 866.32,-107.57 869,-114.04"/>
</g>
<!-- 25&#45;&gt;24 -->
<g id="edge69" class="edge">
<title>25&#45;&gt;24</title>
<path fill="none" stroke="grey" stroke-width="2" d="M904.3,-287.34C880.96,-277.13 851.61,-264.29 827.82,-253.88"/>
<polygon fill="grey" stroke="grey" stroke-width="2" points="829.29,-250.7 818.72,-249.9 826.48,-257.11 829.29,-250.7"/>
</g>
<!-- 25&#45;&gt;29 -->
<g id="edge102" class="edge">
<title>25&#45;&gt;29</title>
<path fill="none" stroke="grey" stroke-width="2" d="M941.51,-287.02C937.37,-263.54 930.08,-222.11 925.07,-193.64"/>
<polygon fill="grey" stroke="grey" stroke-width="2" points="928.52,-193.06 923.34,-183.82 921.62,-194.28 928.52,-193.06"/>
</g>
<!-- 26&#45;&gt;18 -->
<g id="edge49" class="edge">
<title>26&#45;&gt;18</title>
<path fill="none" stroke="grey" stroke-width="2" d="M528.2,-215.36C541.58,-194.64 566.69,-160.96 597.67,-144 643.16,-119.1 788.24,-102.71 867.22,-95.39"/>
<polygon fill="grey" stroke="grey" stroke-width="2" points="867.11,-98.92 876.76,-94.53 866.48,-91.94 867.11,-98.92"/>
</g>
<!-- 26&#45;&gt;29 -->
<g id="edge90" class="edge">
<title>26&#45;&gt;29</title>
<path fill="none" stroke="grey" stroke-width="2" d="M584.05,-221.44C664.67,-207.4 798.76,-184.05 870.62,-171.54"/>
<polygon fill="grey" stroke="grey" stroke-width="2" points="871.05,-175.02 880.31,-169.85 869.85,-168.12 871.05,-175.02"/>
</g>
<!-- 27 -->
<g id="node28" class="node">
<title>27</title>
<path fill="none" stroke="#bed856" stroke-width="2" d="M1283.67,-252C1283.67,-252 1225.67,-252 1225.67,-252 1219.67,-252 1213.67,-246 1213.67,-240 1213.67,-240 1213.67,-228 1213.67,-228 1213.67,-222 1219.67,-216 1225.67,-216 1225.67,-216 1283.67,-216 1283.67,-216 1289.67,-216 1295.67,-222 1295.67,-228 1295.67,-228 1295.67,-240 1295.67,-240 1295.67,-246 1289.67,-252 1283.67,-252"/>
<text text-anchor="middle" x="1254.67" y="-231.5" font-family="sans" font-size="10.00">make_graphs</text>
</g>
<!-- 27&#45;&gt;18 -->
<g id="edge47" class="edge">
<title>27&#45;&gt;18</title>
<path fill="none" stroke="grey" stroke-width="2" d="M1212.92,-215.3C1151.74,-189.37 1037.83,-141.08 971.42,-112.93"/>
<polygon fill="grey" stroke="grey" stroke-width="2" points="972.96,-109.78 962.38,-109.1 970.22,-116.23 972.96,-109.78"/>
</g>
<!-- 27&#45;&gt;29 -->
<g id="edge88" class="edge">
<title>27&#45;&gt;29</title>
<path fill="none" stroke="grey" stroke-width="2" d="M1212.77,-219.51C1208.36,-218.26 1203.94,-217.06 1199.67,-216 1119.44,-196.07 1024.64,-179.58 968.49,-170.53"/>
<polygon fill="grey" stroke="grey" stroke-width="2" points="969.17,-167.09 958.74,-168.97 968.07,-174 969.17,-167.09"/>
</g>
<!-- 28&#45;&gt;18 -->
<g id="edge53" class="edge">
<title>28&#45;&gt;18</title>
<path fill="none" stroke="grey" stroke-width="2" d="M1457.51,-215.09C1440.98,-194.11 1410.53,-160.16 1375.67,-144 1305.02,-111.23 1076.48,-97.61 972.3,-92.99"/>
<polygon fill="grey" stroke="grey" stroke-width="2" points="972.51,-89.5 962.37,-92.57 972.21,-96.49 972.51,-89.5"/>
</g>
<!-- 28&#45;&gt;29 -->
<g id="edge94" class="edge">
<title>28&#45;&gt;29</title>
<path fill="none" stroke="grey" stroke-width="2" d="M1389.37,-222.67C1273.41,-207.94 1064.06,-181.34 969,-169.27"/>
<polygon fill="grey" stroke="grey" stroke-width="2" points="969.47,-165.8 959.11,-168.01 968.59,-172.74 969.47,-165.8"/>
</g>
<!-- 29&#45;&gt;18 -->
<g id="edge44" class="edge">
<title>29&#45;&gt;18</title>
<path fill="none" stroke="grey" stroke-width="2" d="M919.67,-143.34C919.67,-136.75 919.67,-129.08 919.67,-121.67"/>
<polygon fill="grey" stroke="grey" stroke-width="2" points="923.17,-121.93 919.67,-111.93 916.17,-121.93 923.17,-121.93"/>
</g>
</g>
</svg>
